# xmcd
#
# Track frame offsets:
# 150
# 18390
# 39537
# 64815
# 86870
# 108375
# 125750
# 151972
# 175482
# 192005
# 220292
# 248300
# 269837
# 292517
#
# Disc length: 4181 seconds
#
# Revision: 0
# Processed by: cddbd v1.4PL0 Copyright (c) Steve Scherf et al.
# Submitted via: MacMP3 Pro 5.0 (http://mp3.act2.co.jp/)
#
DISCID=c610530e
DTITLE=Omunibas - LOVE STORIES 2 (DISK 2)
DYEAR=1900
DGENRE=
TTITLE0=Asa ga Matakuru
TTITLE1=LOVE since1999
TTITLE2=Kimi wo Sagashiteta New Jersey United
TTITLE3=Asinmetry
TTITLE4=DESTINY
TTITLE5=Riverside Hotel
TTITLE6=nostalgia
TTITLE7=Goodbye Yesterday
TTITLE8=Denen
TTITLE9=FACE
TTITLE10=ZOO
TTITLE11=Kimi wo Wasurenai
TTITLE12=survival dAnce  no no cry more
TTITLE13=Hoshikuzu no Machi
EXTD=
EXTT0=
EXTT1=
EXTT2=
EXTT3=
EXTT4=
EXTT5=
EXTT6=
EXTT7=
EXTT8=
EXTT9=
EXTT10=
EXTT11=
EXTT12=
EXTT13=
PLAYORDER=
